<svg width="1440" height="347" viewBox="0 0 1440 347" fill="none" xmlns="http://www.w3.org/2000/svg">
<path d="M22.5 12.7977C11.7 24.6109 2.33333 24.9391 -1 23.6265V347H1440V0C1439.83 0.164072 1437.5 2.9533 1429.5 12.7976C1421.5 22.6419 1411.5 24.1186 1407.5 23.6264C1395.5 23.6264 1387.5 17.0635 1385 13.782C1371.4 1.18132 1358.67 8.53174 1354 13.782C1351.5 17.2276 1343.6 24.0201 1332 23.6264C1320.4 23.2326 1314.5 18.212 1313 15.7509C1298.2 -0.787546 1284.17 8.2036 1279 14.7665C1277.5 17.3916 1271.6 22.8388 1260 23.6264C1248.4 24.4139 1240.5 18.3761 1238 15.2587C1224 0.29533 1209.83 9.02396 1204.5 15.2587C1202.17 17.8839 1194.9 23.2326 1184.5 23.6264C1174.1 24.0201 1166.17 17.5557 1163.5 14.2743C1149.5 0.492216 1136.67 8.53174 1132 14.2743C1130 17.2276 1123.1 23.2326 1111.5 23.6264C1099.9 24.0201 1091.33 17.2276 1088.5 13.782C1075.3 1.96886 1062.33 8.85989 1057.5 13.782C1054.83 16.7353 1047 22.8388 1037 23.6264C1027 24.4139 1018.83 18.3761 1016 15.2587C1002 0.689102 987.833 9.18803 982.5 15.2587C980.5 17.3916 973.9 22.0513 963.5 23.6264C953.1 25.2015 945.833 19.3605 943.5 16.2431C924.5 -2.95329 910.5 13.782 905.5 17.7198C900.5 21.6575 895.5 23.6264 886.5 23.6264C879.3 23.6264 873.5 19.6886 871.5 17.7198C853.9 -1.18132 838.5 9.51617 833 17.2276C831 19.1964 824.4 23.2326 814 23.6264C801 24.1186 794 17.7198 789 10.8288C784 3.93773 769 4.42994 763.5 11.8132C758 19.1964 748 23.6264 739.5 23.6264C731 23.6264 727.5 21.6575 719.5 14.7665C711.5 7.87546 708 6.89102 702.5 6.89102C697 6.89102 692 8.85989 686 15.7509C680 22.6419 674.5 23.1342 663.5 23.6264C652.5 24.1186 649.5 17.7198 641 10.8288C632.5 3.93773 624 5.41438 614.5 13.782C606.9 20.4762 598.667 23.1342 595.5 23.6264C581 25.5952 575.5 16.7353 565 9.35211C554.5 1.96886 544.5 9.35213 534.5 18.7042C526.5 26.1859 512.5 23.4623 506.5 21.1653C504.5 20.509 498.7 17.326 491.5 9.84435C484.3 2.36267 474.833 6.39884 471 9.35213C469.833 10.1725 466 13.2899 460 19.1965C454 25.1031 443.167 24.6108 438.5 23.6264C436.667 23.2983 430.3 20.3778 419.5 11.321C408.7 2.26422 397 8.85992 392.5 13.2899C389.5 16.4072 380.7 22.8389 369.5 23.6264C355.5 24.6108 351.5 16.2432 344 9.84435C338 4.7253 329.833 6.39884 326.5 7.87548C324.333 9.02399 318.7 12.6008 313.5 17.7198C308.3 22.8389 298.667 23.7905 294.5 23.6265C290.667 23.1342 281.6 20.6731 276 14.7665C270.4 8.85992 262.667 7.38327 259.5 7.38327C256 7.05512 247.8 8.07237 243 14.7665C238.2 21.4606 229.333 23.4624 225.5 23.6265C221.833 24.775 212.3 24.9062 203.5 16.2432C194.7 7.58016 188.5 6.72698 186.5 7.38327C182.667 7.21919 173.7 8.46615 168.5 14.7665C163.3 21.0669 156.333 23.2983 153.5 23.6265C149 25.2672 137 25.3984 125 12.7977C113 0.197073 99.3333 8.85998 94 14.7665C92 17.7198 85.4 23.6265 75 23.6265C64.6 23.6265 55 16.4073 51.5 12.7977C46.3333 7.87557 33.3 0.984549 22.5 12.7977Z" fill="#FAF8F6"/>
</svg>
