<svg width="375" height="205" viewBox="0 0 375 205" fill="none" xmlns="http://www.w3.org/2000/svg">
<path d="M-207.024 7.56062C-213.447 14.5396 -219.018 14.7335 -221 13.958V205H636V0C635.901 0.0969302 634.513 1.74474 629.755 7.56055C624.998 13.3764 619.05 14.2487 616.671 13.9579C609.535 13.9579 604.777 10.0807 603.29 8.14213C595.202 0.697897 587.629 5.04037 584.854 8.14213C583.367 10.1777 578.668 14.1906 571.77 13.9579C564.871 13.7253 561.362 10.7592 560.47 9.30529C551.668 -0.465265 543.322 4.84651 540.249 8.72371C539.357 10.2746 535.848 13.4927 528.949 13.9579C522.051 14.4232 517.352 10.8562 515.865 9.0145C507.539 0.174475 499.114 5.33116 495.942 9.0145C494.554 10.5654 490.233 13.7253 484.048 13.9579C477.862 14.1906 473.144 10.3715 471.558 8.43292C463.232 0.29079 455.6 5.04037 452.824 8.43292C451.635 10.1777 447.531 13.7253 440.633 13.9579C433.734 14.1906 428.639 10.1777 426.954 8.14213C419.104 1.16316 411.392 5.23423 408.517 8.14213C406.931 9.88688 402.273 13.4927 396.326 13.9579C390.378 14.4232 385.521 10.8562 383.836 9.0145C375.51 0.407106 367.085 5.42809 363.913 9.0145C362.723 10.2746 358.798 13.0274 352.613 13.9579C346.428 14.8885 342.106 11.4378 340.719 9.59609C329.419 -1.74474 321.093 8.14213 318.119 10.4685C315.145 12.7948 312.172 13.9579 306.819 13.9579C302.537 13.9579 299.088 11.6316 297.898 10.4685C287.431 -0.697898 278.272 5.62195 275.001 10.1777C273.812 11.3408 269.887 13.7253 263.702 13.9579C255.97 14.2487 251.807 10.4685 248.833 6.39739C245.86 2.32632 236.939 2.61711 233.668 6.97897C230.397 11.3408 224.45 13.9579 219.395 13.9579C214.339 13.9579 212.258 12.7948 207.5 8.72371C202.742 4.65265 200.661 4.07107 197.39 4.07107C194.119 4.07107 191.145 5.23423 187.577 9.30529C184.008 13.3764 180.737 13.6672 174.195 13.9579C167.653 14.2487 165.869 10.4685 160.814 6.39739C155.759 2.32632 150.704 3.19869 145.054 8.14213C140.534 12.0969 135.637 13.6672 133.754 13.9579C125.13 15.1211 121.859 9.88688 115.615 5.52502C109.37 1.16316 103.423 5.52504 97.4757 11.05C92.7179 15.47 84.3918 13.861 80.8234 12.504C79.6339 12.1163 76.1845 10.2358 71.9025 5.81583C67.6205 1.39581 61.9904 3.78029 59.7106 5.52504C59.0168 6.00969 56.737 7.85136 53.1686 11.3408C49.6003 14.8303 43.1574 14.5395 40.382 13.958C39.2917 13.7641 35.5053 12.0387 29.0822 6.6882C22.6592 1.33765 15.7009 5.23425 13.0246 7.85136C11.2405 9.69303 6.00688 13.4927 -0.654053 13.958C-8.98021 14.5395 -11.3591 9.5961 -15.8196 5.81583C-19.3879 2.79161 -24.2448 3.78029 -26.2273 4.65266C-27.5158 5.33117 -30.8661 7.44425 -33.9587 10.4685C-37.0513 13.4927 -42.7805 14.0549 -45.2585 13.958C-47.5383 13.6672 -52.9305 12.2132 -56.2609 8.72373C-59.5914 5.23425 -64.1906 4.36187 -66.0739 4.36187C-68.1554 4.16801 -73.0322 4.76898 -75.8869 8.72373C-78.7416 12.6785 -84.0148 13.8611 -86.2946 13.958C-88.4753 14.6365 -94.145 14.714 -99.3786 9.5961C-104.612 4.47819 -108.299 3.97415 -109.489 4.36187C-111.769 4.26494 -117.101 5.00161 -120.194 8.72373C-123.287 12.4458 -127.43 13.7641 -129.115 13.958C-131.791 14.9273 -138.928 15.0048 -146.065 7.56062C-153.201 0.116426 -161.329 5.23428 -164.501 8.72373C-165.69 10.4685 -169.616 13.958 -175.801 13.958C-181.986 13.958 -187.695 9.69308 -189.777 7.56062C-192.85 4.65272 -200.601 0.58165 -207.024 7.56062Z" fill="#FAF8F6"/>
</svg>
