<svg width="1440" height="2081" viewBox="0 0 1440 2081" fill="none" xmlns="http://www.w3.org/2000/svg">
<path d="M22.5 11.9881C11.7 23.0539 2.33333 23.3613 -1 22.1318V2081H1440V0C1439.83 0.153692 1437.5 2.76646 1429.5 11.988C1421.5 21.2095 1411.5 22.5928 1407.5 22.1317C1395.5 22.1317 1387.5 15.984 1385 12.9101C1371.4 1.10658 1358.67 7.992 1354 12.9101C1351.5 16.1377 1343.6 22.5005 1332 22.1317C1320.4 21.7628 1314.5 17.0598 1313 14.7545C1298.2 -0.737723 1284.17 7.68461 1279 13.8323C1277.5 16.2914 1271.6 21.394 1260 22.1317C1248.4 22.8694 1240.5 17.2135 1238 14.2934C1224 0.276646 1209.83 8.45307 1204.5 14.2934C1202.17 16.7525 1194.9 21.7628 1184.5 22.1317C1174.1 22.5005 1166.17 16.4451 1163.5 13.3712C1149.5 0.461077 1136.67 7.992 1132 13.3712C1130 16.1377 1123.1 21.7628 1111.5 22.1317C1099.9 22.5005 1091.33 16.1377 1088.5 12.9101C1075.3 1.84431 1062.33 8.29938 1057.5 12.9101C1054.83 15.6766 1047 21.394 1037 22.1317C1027 22.8694 1018.83 17.2135 1016 14.2934C1002 0.645507 987.833 8.60676 982.5 14.2934C980.5 16.2914 973.9 20.6562 963.5 22.1317C953.1 23.6071 945.833 18.1357 943.5 15.2155C924.5 -2.76646 910.5 12.9101 905.5 16.5988C900.5 20.2874 895.5 22.1317 886.5 22.1317C879.3 22.1317 873.5 18.4431 871.5 16.5988C853.9 -1.10658 838.5 8.91415 833 16.1377C831 17.982 824.4 21.7628 814 22.1317C801 22.5928 794 16.5988 789 10.1437C784 3.68861 769 4.14969 763.5 11.0658C758 17.982 748 22.1317 739.5 22.1317C731 22.1317 727.5 20.2874 719.5 13.8323C711.5 7.37723 708 6.45507 702.5 6.45507C697 6.45507 692 8.29938 686 14.7545C680 21.2095 674.5 21.6706 663.5 22.1317C652.5 22.5928 649.5 16.5988 641 10.1437C632.5 3.68861 624 5.07184 614.5 12.9101C606.9 19.1808 598.667 21.6706 595.5 22.1317C581 23.976 575.5 15.6766 565 8.76046C554.5 1.84431 544.5 8.76048 534.5 17.5209C526.5 24.5293 512.5 21.978 506.5 19.8263C504.5 19.2115 498.7 16.2299 491.5 9.22156C484.3 2.2132 474.833 5.99402 471 8.76048C469.833 9.52894 466 12.4491 460 17.982C454 23.5149 443.167 23.0539 438.5 22.1317C436.667 21.8243 430.3 19.0886 419.5 10.6048C408.7 2.12098 397 8.29941 392.5 12.4491C389.5 15.3693 380.7 21.394 369.5 22.1317C355.5 23.0539 351.5 15.2156 344 9.22156C338 4.42636 329.833 5.99402 326.5 7.37725C324.333 8.4531 318.7 11.8036 313.5 16.5988C308.3 21.394 298.667 22.2855 294.5 22.1318C290.667 21.6707 281.6 19.3652 276 13.8323C270.4 8.29941 262.667 6.91617 259.5 6.91617C256 6.60879 247.8 7.56169 243 13.8323C238.2 20.103 229.333 21.9781 225.5 22.1318C221.833 23.2076 212.3 23.3305 203.5 15.2156C194.7 7.10061 188.5 6.3014 186.5 6.91617C182.667 6.76248 173.7 7.93055 168.5 13.8323C163.3 19.7341 156.333 21.8244 153.5 22.1318C149 23.6687 137 23.7916 125 11.9881C113 0.184605 99.3333 8.29946 94 13.8323C92 16.5988 85.4 22.1318 75 22.1318C64.6 22.1318 55 15.3693 51.5 11.9881C46.3333 7.37734 33.3 0.922262 22.5 11.9881Z" fill="#FAF8F6"/>
</svg>
