<svg width="375" height="1736" viewBox="0 0 375 1736" fill="none" xmlns="http://www.w3.org/2000/svg">
<path d="M-200.856 6.59593C-206.896 12.6844 -212.136 12.8535 -214 12.177V1736H592V0C591.907 0.0845624 590.602 1.52212 586.127 6.59587C581.652 11.6696 576.059 12.4307 573.822 12.177C567.11 12.177 562.635 8.79449 561.237 7.10324C553.63 0.60885 546.508 4.39725 543.897 7.10324C542.499 8.87906 538.08 12.3799 531.592 12.177C525.104 11.974 521.804 9.38643 520.965 8.11799C512.686 -0.4059 504.837 4.22812 501.947 7.61062C501.108 8.96362 497.808 11.7711 491.32 12.177C484.832 12.5829 480.413 9.47099 479.015 7.86431C471.184 0.152211 463.26 4.65093 460.277 7.86431C458.972 9.2173 454.907 11.974 449.09 12.177C443.273 12.3799 438.836 9.04818 437.344 7.35693C429.514 0.253687 422.335 4.39725 419.725 7.35693C418.607 8.87906 414.747 11.974 408.259 12.177C401.771 12.3799 396.979 8.87906 395.394 7.10324C388.011 1.01475 380.758 4.56637 378.055 7.10324C376.563 8.62537 372.182 11.7711 366.589 12.177C360.995 12.5829 356.427 9.47099 354.843 7.86431C347.012 0.355161 339.088 4.7355 336.105 7.86431C334.986 8.96362 331.295 11.3652 325.478 12.177C319.66 12.9888 315.596 9.97837 314.291 8.37168C303.663 -1.52212 295.833 7.10324 293.036 9.13274C290.239 11.1622 287.443 12.177 282.409 12.177C278.382 12.177 275.137 10.1475 274.019 9.13274C264.174 -0.60885 255.561 4.90462 252.484 8.87905C251.366 9.8938 247.674 11.974 241.857 12.177C234.586 12.4307 230.67 9.13274 227.874 5.58112C225.077 2.0295 216.687 2.28319 213.611 6.08849C210.534 9.8938 204.941 12.177 200.187 12.177C195.432 12.177 193.475 11.1622 189 7.61062C184.525 4.059 182.568 3.55162 179.491 3.55162C176.415 3.55162 173.618 4.56637 170.262 8.11799C166.906 11.6696 163.83 11.9233 157.677 12.177C151.525 12.4307 149.847 9.13274 145.092 5.58112C140.338 2.0295 135.584 2.79056 130.27 7.10324C126.019 10.5534 121.414 11.9233 119.643 12.177C111.532 13.1917 108.456 8.62537 102.583 4.82006C96.7099 1.01475 91.1166 4.82007 85.5233 9.64012C81.0486 13.4962 73.2179 12.0924 69.8619 10.9086C68.7432 10.5703 65.4991 8.92981 61.4719 5.07376C57.4447 1.21771 52.1497 3.29795 50.0056 4.82007C49.353 5.24289 47.2089 6.84957 43.8529 9.89382C40.4969 12.9381 34.4374 12.6844 31.8272 12.177C30.8018 12.0079 27.2407 10.5027 21.1999 5.83482C15.1591 1.16698 8.61485 4.56639 6.09785 6.84957C4.41986 8.45626 -0.502289 11.7711 -6.76683 12.177C-14.5975 12.6844 -16.8348 8.3717 -21.0298 5.07376C-24.3858 2.43541 -28.9537 3.29795 -30.8182 4.05901C-32.0301 4.65095 -35.181 6.49441 -38.0895 9.13276C-40.9981 11.7711 -46.3863 12.2616 -48.7169 12.177C-50.861 11.9233 -55.9323 10.6549 -59.0645 7.61063C-62.1968 4.56639 -66.5223 3.80532 -68.2935 3.80532C-70.2512 3.6362 -74.8378 4.16049 -77.5226 7.61063C-80.2074 11.0608 -85.1668 12.0925 -87.3109 12.177C-89.3618 12.769 -94.6941 12.8366 -99.6162 8.37169C-104.538 3.9068 -108.006 3.46707 -109.125 3.80532C-111.269 3.72076 -116.284 4.36344 -119.193 7.61063C-122.101 10.8578 -125.998 12.0079 -127.583 12.177C-130.1 13.0227 -136.812 13.0903 -143.524 6.59593C-150.236 0.101571 -157.88 4.56642 -160.863 7.61063C-161.982 9.13277 -165.674 12.177 -171.491 12.177C-177.308 12.177 -182.677 8.4563 -184.635 6.59593C-187.525 4.05906 -194.815 0.507436 -200.856 6.59593Z" fill="#FAF8F6"/>
</svg>
