<svg width="375" height="1650" viewBox="0 0 375 1650" fill="none" xmlns="http://www.w3.org/2000/svg">
<path d="M-195.856 6.47201C-201.896 12.4461 -207.136 12.6121 -209 11.9483V1650H597V0C596.907 0.0829737 595.602 1.49353 591.127 6.47195C586.652 11.4504 581.059 12.1971 578.822 11.9482C572.11 11.9482 567.635 8.62927 566.237 6.96979C558.63 0.597411 551.508 4.31463 548.897 6.96979C547.499 8.71224 543.08 12.1474 536.592 11.9482C530.104 11.7491 526.804 9.21008 525.965 7.96548C517.686 -0.398273 509.837 4.14869 506.947 7.46764C506.108 8.79522 502.808 11.5499 496.32 11.9482C489.832 12.3465 485.413 9.29306 484.015 7.71656C476.184 0.149351 468.26 4.56355 465.277 7.71656C463.972 9.04414 459.907 11.7491 454.09 11.9482C448.273 12.1474 443.836 8.87819 442.344 7.21872C434.514 0.248922 427.335 4.31463 424.725 7.21872C423.607 8.71224 419.747 11.7491 413.259 11.9482C406.771 12.1474 401.979 8.71224 400.394 6.96979C393.011 0.995685 385.758 4.48058 383.055 6.96979C381.563 8.46332 377.182 11.5499 371.589 11.9482C365.995 12.3465 361.427 9.29306 359.843 7.71656C352.012 0.348489 344.088 4.64653 341.105 7.71656C339.986 8.79522 336.295 11.1517 330.478 11.9482C324.66 12.7448 320.596 9.7909 319.291 8.2144C308.663 -1.49353 300.833 6.96979 298.036 8.96116C295.239 10.9525 292.443 11.9482 287.409 11.9482C283.382 11.9482 280.137 9.95685 279.019 8.96116C269.174 -0.597411 260.561 4.81248 257.484 8.71224C256.366 9.70793 252.674 11.7491 246.857 11.9482C239.586 12.1971 235.67 8.96116 232.874 5.47627C230.077 1.99137 221.687 2.24029 218.611 5.97411C215.534 9.70793 209.941 11.9482 205.187 11.9482C200.432 11.9482 198.475 10.9525 194 7.46764C189.525 3.98274 187.568 3.4849 184.491 3.4849C181.415 3.4849 178.618 4.48058 175.262 7.96548C171.906 11.4504 168.83 11.6993 162.677 11.9482C156.525 12.1971 154.847 8.96116 150.092 5.47627C145.338 1.99137 140.584 2.73813 135.27 6.96979C131.019 10.3551 126.414 11.6993 124.643 11.9482C116.532 12.9439 113.456 8.46332 107.583 4.7295C101.71 0.995686 96.1166 4.72952 90.5233 9.45901C86.0486 13.2426 78.2179 11.8652 74.8619 10.7036C73.7432 10.3717 70.4991 8.76204 66.4719 4.97844C62.4447 1.19484 57.1497 3.23599 55.0056 4.72952C54.353 5.14439 52.2089 6.72089 48.8529 9.70794C45.4969 12.695 39.4374 12.4461 36.8272 11.9482C35.8018 11.7823 32.2407 10.3054 26.1999 5.7252C20.1591 1.14505 13.6149 4.4806 11.0979 6.72089C9.41986 8.29739 4.49771 11.55 -1.76683 11.9482C-9.5975 12.4461 -11.8348 8.21441 -16.0298 4.97844C-19.3858 2.38966 -23.9537 3.23599 -25.8182 3.98275C-27.0301 4.56357 -30.181 6.3724 -33.0895 8.96118C-35.9981 11.55 -41.3863 12.0312 -43.7169 11.9483C-45.861 11.6993 -50.9323 10.4547 -54.0645 7.46765C-57.1968 4.4806 -61.5223 3.73383 -63.2935 3.73383C-65.2512 3.56788 -69.8378 4.08232 -72.5226 7.46765C-75.2074 10.853 -80.1668 11.8653 -82.3109 11.9483C-84.3618 12.5291 -89.6941 12.5954 -94.6162 8.21441C-99.5384 3.8334 -103.006 3.40194 -104.125 3.73383C-106.269 3.65086 -111.284 4.28146 -114.193 7.46765C-117.101 10.6538 -120.998 11.7823 -122.583 11.9483C-125.1 12.778 -131.812 12.8444 -138.524 6.47201C-145.236 0.0996642 -152.88 4.48063 -155.863 7.46765C-156.982 8.96119 -160.674 11.9483 -166.491 11.9483C-172.308 11.9483 -177.677 8.29743 -179.635 6.47201C-182.525 3.9828 -189.815 0.497903 -195.856 6.47201Z" fill="#FAF8F6"/>
</svg>
