<svg width="1440" height="1993" viewBox="0 0 1440 1993" fill="none" xmlns="http://www.w3.org/2000/svg">
<path d="M23.5 11.8199C12.7 22.7305 3.33333 23.0336 0 21.8213V1993H1441V0C1440.83 0.151536 1438.5 2.72765 1430.5 11.8198C1422.5 20.912 1412.5 22.2758 1408.5 21.8212C1396.5 21.8212 1388.5 15.7597 1386 12.729C1372.4 1.09106 1359.67 7.87987 1355 12.729C1352.5 15.9113 1344.6 22.1849 1333 21.8212C1321.4 21.4575 1315.5 16.8205 1314 14.5475C1299.2 -0.727373 1285.17 7.5768 1280 13.6382C1278.5 16.0628 1272.6 21.0938 1261 21.8212C1249.4 22.5486 1241.5 16.972 1239 14.0929C1225 0.272766 1210.83 8.33448 1205.5 14.0929C1203.17 16.5174 1195.9 21.4575 1185.5 21.8212C1175.1 22.1849 1167.17 16.2144 1164.5 13.1836C1150.5 0.454608 1137.67 7.87987 1133 13.1836C1131 15.9113 1124.1 21.4575 1112.5 21.8212C1100.9 22.1849 1092.33 15.9113 1089.5 12.729C1076.3 1.81843 1063.33 8.18295 1058.5 12.729C1055.83 15.4567 1048 21.0938 1038 21.8212C1028 22.5486 1019.83 16.972 1017 14.0929C1003 0.636452 988.833 8.48602 983.5 14.0929C981.5 16.0628 974.9 20.3664 964.5 21.8212C954.1 23.2759 946.833 17.8813 944.5 15.0021C925.5 -2.72765 911.5 12.729 906.5 16.3659C901.5 20.0028 896.5 21.8212 887.5 21.8212C880.3 21.8212 874.5 18.1843 872.5 16.3659C854.9 -1.09106 839.5 8.78909 834 15.9113C832 17.7297 825.4 21.4575 815 21.8212C802 22.2758 795 16.3659 790 10.0014C785 3.63686 770 4.09147 764.5 10.9106C759 17.7297 749 21.8212 740.5 21.8212C732 21.8212 728.5 20.0028 720.5 13.6382C712.5 7.27373 709 6.36451 703.5 6.36451C698 6.36451 693 8.18295 687 14.5475C681 20.912 675.5 21.3666 664.5 21.8212C653.5 22.2758 650.5 16.3659 642 10.0014C633.5 3.63686 625 5.00069 615.5 12.729C607.9 18.9117 599.667 21.3666 596.5 21.8212C582 23.6396 576.5 15.4567 566 8.63755C555.5 1.81843 545.5 8.63758 535.5 17.2751C527.5 24.1851 513.5 21.6696 507.5 19.5481C505.5 18.942 499.7 16.0022 492.5 9.09219C485.3 2.18215 475.833 5.90993 472 8.63758C470.833 9.39526 467 12.2744 461 17.7297C455 23.185 444.167 22.7304 439.5 21.8212C437.667 21.5181 431.3 18.8208 420.5 10.456C409.7 2.09122 398 8.18297 393.5 12.2744C390.5 15.1536 381.7 21.0938 370.5 21.8212C356.5 22.7304 352.5 15.0021 345 9.09219C339 4.36426 330.833 5.90993 327.5 7.27375C325.333 8.33451 319.7 11.638 314.5 16.3659C309.3 21.0938 299.667 21.9728 295.5 21.8213C291.667 21.3667 282.6 19.0936 277 13.6383C271.4 8.18297 263.667 6.81914 260.5 6.81914C257 6.51607 248.8 7.4556 244 13.6383C239.2 19.8209 230.333 21.6697 226.5 21.8213C222.833 22.882 213.3 23.0032 204.5 15.0021C195.7 7.00099 189.5 6.213 187.5 6.81914C183.667 6.66761 174.7 7.81929 169.5 13.6383C164.3 19.4573 157.333 21.5182 154.5 21.8213C150 23.3366 138 23.4578 126 11.8199C114 0.182015 100.333 8.18303 95 13.6383C93 16.3659 86.4 21.8213 76 21.8213C65.6 21.8213 56 15.1537 52.5 11.8199C47.3333 7.27384 34.3 0.909325 23.5 11.8199Z" fill="#FAF8F6"/>
</svg>
