<svg width="375" height="571" viewBox="0 0 375 571" fill="none" xmlns="http://www.w3.org/2000/svg">
<path d="M-204.856 6.56743C-210.896 12.6296 -216.136 12.798 -218 12.1244V571H588V0C587.907 0.0841971 586.602 1.51555 582.127 6.56737C577.652 11.6192 572.059 12.377 569.822 12.1244C563.11 12.1244 558.635 8.7565 557.237 7.07256C549.63 0.606219 542.508 4.37825 539.897 7.07256C538.499 8.8407 534.08 12.3265 527.592 12.1244C521.104 11.9223 517.804 9.34588 516.965 8.08292C508.686 -0.404146 500.837 4.20985 497.947 7.57774C497.108 8.92489 493.808 11.7202 487.32 12.1244C480.832 12.5285 476.413 9.43007 475.015 7.83033C467.184 0.151554 459.26 4.63084 456.277 7.83033C454.972 9.17748 450.907 11.9223 445.09 12.1244C439.273 12.3265 434.836 9.00909 433.344 7.32515C425.514 0.252592 418.335 4.37825 415.725 7.32515C414.607 8.8407 410.747 11.9223 404.259 12.1244C397.771 12.3265 392.979 8.8407 391.394 7.07256C384.011 1.01037 376.758 4.54664 374.055 7.07256C372.563 8.5881 368.182 11.7202 362.589 12.1244C356.995 12.5285 352.427 9.43007 350.842 7.83033C343.012 0.353627 335.088 4.71504 332.105 7.83033C330.986 8.92489 327.295 11.3161 321.477 12.1244C315.66 12.9327 311.596 9.93526 310.291 8.33551C299.663 -1.51555 291.833 7.07256 289.036 9.09329C286.239 11.114 283.443 12.1244 278.409 12.1244C274.382 12.1244 271.137 10.1037 270.019 9.09329C260.174 -0.606221 251.561 4.88343 248.484 8.84069C247.366 9.85106 243.674 11.9223 237.857 12.1244C230.586 12.377 226.67 9.09329 223.874 5.55701C221.077 2.02073 212.687 2.27332 209.611 6.06219C206.534 9.85106 200.941 12.1244 196.187 12.1244C191.432 12.1244 189.475 11.114 185 7.57774C180.525 4.04146 178.568 3.53628 175.491 3.53628C172.415 3.53628 169.618 4.54664 166.262 8.08292C162.906 11.6192 159.83 11.8718 153.677 12.1244C147.525 12.377 145.847 9.09329 141.092 5.55701C136.338 2.02073 131.584 2.7785 126.27 7.07256C122.019 10.5078 117.414 11.8718 115.643 12.1244C107.532 13.1347 104.456 8.5881 98.5829 4.79924C92.7099 1.01037 87.1166 4.79925 81.5233 9.59847C77.0486 13.4378 69.2179 12.0402 65.8619 10.8614C64.7432 10.5246 61.4991 8.89123 57.4719 5.05184C53.4447 1.21245 48.1497 3.2837 46.0056 4.79925C45.353 5.22023 43.2089 6.81998 39.8529 9.85108C36.4969 12.8822 30.4374 12.6296 27.8272 12.1244C26.8018 11.956 23.2407 10.4573 17.1999 5.80961C11.1591 1.16193 4.61485 4.54666 2.09785 6.81998C0.419861 8.41972 -4.50229 11.7202 -10.7668 12.1244C-18.5975 12.6296 -20.8348 8.33553 -25.0298 5.05184C-28.3858 2.42489 -32.9537 3.2837 -34.8182 4.04147C-36.0301 4.63085 -39.181 6.46635 -42.0895 9.0933C-44.9981 11.7203 -50.3863 12.2086 -52.7169 12.1244C-54.861 11.8718 -59.9323 10.6088 -63.0645 7.57775C-66.1968 4.54666 -70.5223 3.78888 -72.2935 3.78888C-74.2512 3.62049 -78.8378 4.14251 -81.5226 7.57775C-84.2074 11.013 -89.1668 12.0402 -91.3109 12.1244C-93.3618 12.7138 -98.6941 12.7811 -103.616 8.33553C-108.538 3.88992 -112.006 3.45209 -113.125 3.78888C-115.269 3.70468 -120.284 4.34459 -123.193 7.57775C-126.101 10.8109 -129.998 11.956 -131.583 12.1244C-134.1 12.9664 -140.812 13.0337 -147.524 6.56743C-154.236 0.101132 -161.88 4.54669 -164.863 7.57775C-165.982 9.09332 -169.674 12.1244 -175.491 12.1244C-181.308 12.1244 -186.677 8.41977 -188.635 6.56743C-191.525 4.04152 -198.815 0.505243 -204.856 6.56743Z" fill="#FAF8F6"/>
</svg>
