<svg width="1440" height="1044" viewBox="0 0 1440 1044" fill="none" xmlns="http://www.w3.org/2000/svg">
<path d="M22.5 12.0077C11.7 23.0916 2.33333 23.3995 -1 22.168V1044H1440V0C1439.83 0.153944 1437.5 2.77098 1429.5 12.0076C1421.5 21.2442 1411.5 22.6297 1407.5 22.1679C1395.5 22.1679 1387.5 16.0101 1385 12.9313C1371.4 1.10839 1358.67 8.00506 1354 12.9313C1351.5 16.1641 1343.6 22.5373 1332 22.1679C1320.4 21.7984 1314.5 17.0877 1313 14.7786C1298.2 -0.738929 1284.17 7.69718 1279 13.8549C1277.5 16.318 1271.6 21.4289 1260 22.1679C1248.4 22.9068 1240.5 17.2417 1238 14.3167C1224 0.277098 1209.83 8.46689 1204.5 14.3167C1202.17 16.7798 1194.9 21.7984 1184.5 22.1679C1174.1 22.5373 1166.17 16.472 1163.5 13.3931C1149.5 0.461832 1136.67 8.00506 1132 13.3931C1130 16.1641 1123.1 21.7984 1111.5 22.1679C1099.9 22.5373 1091.33 16.1641 1088.5 12.9313C1075.3 1.84732 1062.33 8.31295 1057.5 12.9313C1054.83 15.7022 1047 21.4289 1037 22.1679C1027 22.9068 1018.83 17.2417 1016 14.3167C1002 0.646562 987.833 8.62084 982.5 14.3167C980.5 16.318 973.9 20.69 963.5 22.1679C953.1 23.6457 945.833 18.1653 943.5 15.2404C924.5 -2.77098 910.5 12.9313 905.5 16.6259C900.5 20.3205 895.5 22.1679 886.5 22.1679C879.3 22.1679 873.5 18.4732 871.5 16.6259C853.9 -1.1084 838.5 8.92872 833 16.1641C831 18.0114 824.4 21.7984 814 22.1679C801 22.6297 794 16.6259 789 10.1603C784 3.69465 769 4.15648 763.5 11.0839C758 18.0114 748 22.1679 739.5 22.1679C731 22.1679 727.5 20.3205 719.5 13.8549C711.5 7.38929 708 6.46563 702.5 6.46563C697 6.46563 692 8.31295 686 14.7786C680 21.2442 674.5 21.706 663.5 22.1679C652.5 22.6297 649.5 16.6259 641 10.1603C632.5 3.69465 624 5.08014 614.5 12.9313C606.9 19.2122 598.667 21.706 595.5 22.1679C581 24.0152 575.5 15.7022 565 8.77478C554.5 1.84732 544.5 8.77481 534.5 17.5496C526.5 24.5694 512.5 22.0139 506.5 19.8587C504.5 19.2429 498.7 16.2565 491.5 9.23664C484.3 2.21681 474.833 6.00383 471 8.77481C469.833 9.54453 466 12.4695 460 18.0114C454 23.5534 443.167 23.0916 438.5 22.1679C436.667 21.86 430.3 19.1198 419.5 10.6221C408.7 2.12445 397 8.31298 392.5 12.4695C389.5 15.3944 380.7 21.429 369.5 22.1679C355.5 23.0916 351.5 15.2404 344 9.23664C338 4.4336 329.833 6.00382 326.5 7.38932C324.333 8.46692 318.7 11.8229 313.5 16.6259C308.3 21.429 298.667 22.3219 294.5 22.168C290.667 21.7061 281.6 19.3969 276 13.8549C270.4 8.31298 262.667 6.92748 259.5 6.92748C256 6.6196 247.8 7.57405 243 13.8549C238.2 20.1358 229.333 22.014 225.5 22.168C221.833 23.2456 212.3 23.3687 203.5 15.2404C194.7 7.11222 188.5 6.31171 186.5 6.92748C182.667 6.77354 173.7 7.94351 168.5 13.8549C163.3 19.7664 156.333 21.8601 153.5 22.168C149 23.7074 137 23.8305 125 12.0077C113 0.184908 99.3333 8.31303 94 13.8549C92 16.626 85.4 22.168 75 22.168C64.6 22.168 55 15.3945 51.5 12.0077C46.3333 7.3894 33.3 0.923772 22.5 12.0077Z" fill="#FAF8F6"/>
</svg>
