<svg width="10" height="12" viewBox="0 0 10 12" fill="none" xmlns="http://www.w3.org/2000/svg">
<g clip-path="url(#clip0_398_212)">
<path d="M9.448 9.15363C9.12771 8.67956 8.76807 8.28868 8.35815 8.09124C7.94822 7.89379 7.49129 7.88678 6.98626 8.17342C6.62006 8.38089 6.2801 8.71564 6.02321 9.10151C5.04813 8.7417 4.20423 8.00103 3.54617 7.03586C2.87607 6.05265 2.5208 5.01231 2.61263 4.03511C3.10017 3.99602 3.57349 3.86573 3.93641 3.65926C4.44144 3.37262 4.63821 2.99477 4.62837 2.56981C4.61853 2.14486 4.39772 1.6758 4.07743 1.20173C3.75714 0.727668 3.3975 0.336788 2.98757 0.139344C2.57765 -0.0581001 2.12072 -0.0651159 1.61569 0.221529C1.11066 0.508174 0.651544 1.03536 0.400123 1.60865C0.331256 1.766 0.277692 1.92636 0.243805 2.08673C0.159633 2.31123 0.0973247 2.55077 0.0612513 2.80835C-0.160655 4.36886 0.205545 6.0747 1.61569 8.14235C3.02474 10.211 4.53655 11.2604 6.16313 11.7615C6.44625 11.8487 6.72172 11.9028 6.99173 11.9309C7.12837 11.9589 7.26938 11.978 7.41258 11.989C8.08486 12.0371 8.80305 11.8958 9.30808 11.6092C9.81311 11.3225 10.0099 10.9447 10 10.5197C9.9902 10.0947 9.76938 9.62569 9.44909 9.15162L9.448 9.15363Z" fill="#184422"/>
</g>
<defs>
<clipPath id="clip0_398_212">
<rect width="10" height="12" fill="white"/>
</clipPath>
</defs>
</svg>
