<svg width="28" height="36" viewBox="0 0 28 36" fill="none" xmlns="http://www.w3.org/2000/svg">
<path d="M26.4543 27.4606C25.5575 26.0384 24.5505 24.8658 23.4027 24.2735C22.2549 23.6811 20.9755 23.6601 19.5614 24.52C18.536 25.1424 17.5841 26.1467 16.8649 27.3043C14.1347 26.2249 11.7717 24.0029 9.92914 21.1073C8.05288 18.1577 7.05813 15.0367 7.31524 12.1051C8.68034 11.9878 10.0057 11.5969 11.0218 10.9775C12.4359 10.1176 12.9869 8.98406 12.9593 7.70919C12.9318 6.43433 12.3135 5.02716 11.4167 3.60496C10.5199 2.18276 9.51288 1.01012 8.36508 0.417788C7.21729 -0.174545 5.93789 -0.195592 4.52381 0.664343C3.10973 1.52428 1.8242 3.10584 1.12022 4.82571C0.927394 5.29777 0.777416 5.77885 0.682531 6.25993C0.446851 6.93345 0.272387 7.65207 0.171381 8.4248C-0.449956 13.1063 0.575404 18.2239 4.52381 24.4268C8.46915 30.6328 12.7022 33.7809 17.2566 35.2842C18.0494 35.5458 18.8207 35.7082 19.5767 35.7924C19.9593 35.8766 20.3542 35.9337 20.7551 35.9668C22.6375 36.1111 24.6484 35.6871 26.0625 34.8272C27.4766 33.9673 28.0275 32.8337 28 31.5589C27.9724 30.284 27.3542 28.8768 26.4573 27.4546L26.4543 27.4606Z" fill="#184422"/>
</svg>
