<svg width="1440" height="1181" viewBox="0 0 1440 1181" fill="none" xmlns="http://www.w3.org/2000/svg">
<path d="M23.5 11.6938C12.7 22.4879 3.33333 22.7877 0 21.5884V1181H1441V0C1440.83 0.149919 1438.5 2.69853 1430.5 11.6936C1422.5 20.6888 1412.5 22.038 1408.5 21.5883C1396.5 21.5883 1388.5 15.5915 1386 12.5932C1372.4 1.07941 1359.67 7.79576 1355 12.5932C1352.5 15.7414 1344.6 21.9481 1333 21.5883C1321.4 21.2285 1315.5 16.641 1314 14.3922C1299.2 -0.719609 1285.17 7.49593 1280 13.4927C1278.5 15.8914 1272.6 20.8687 1261 21.5883C1249.4 22.3079 1241.5 16.7909 1239 13.9424C1225 0.269854 1210.83 8.24552 1205.5 13.9424C1203.17 16.3411 1195.9 21.2285 1185.5 21.5883C1175.1 21.9481 1167.17 16.0413 1164.5 13.0429C1150.5 0.449756 1137.67 7.79576 1133 13.0429C1131 15.7414 1124.1 21.2285 1112.5 21.5883C1100.9 21.9481 1092.33 15.7414 1089.5 12.5932C1076.3 1.79902 1063.33 8.0956 1058.5 12.5932C1055.83 15.2917 1048 20.8687 1038 21.5883C1028 22.3079 1019.83 16.7909 1017 13.9424C1003 0.629658 988.833 8.39544 983.5 13.9424C981.5 15.8914 974.9 20.1491 964.5 21.5883C954.1 23.0275 946.833 17.6904 944.5 14.8419C925.5 -2.69853 911.5 12.5932 906.5 16.1912C901.5 19.7892 896.5 21.5883 887.5 21.5883C880.3 21.5883 874.5 17.9902 872.5 16.1912C854.9 -1.07941 839.5 8.69527 834 15.7414C832 17.5405 825.4 21.2285 815 21.5883C802 22.038 795 16.1912 790 9.89462C785 3.59805 770 4.0478 764.5 10.7941C759 17.5405 749 21.5883 740.5 21.5883C732 21.5883 728.5 19.7892 720.5 13.4927C712.5 7.19609 709 6.29658 703.5 6.29658C698 6.29658 693 8.0956 687 14.3922C681 20.6888 675.5 21.1385 664.5 21.5883C653.5 22.038 650.5 16.1912 642 9.89462C633.5 3.59805 625 4.94731 615.5 12.5932C607.9 18.7098 599.667 21.1385 596.5 21.5883C582 23.3873 576.5 15.2917 566 8.54536C555.5 1.79902 545.5 8.54538 535.5 17.0907C527.5 23.927 513.5 21.4383 507.5 19.3395C505.5 18.7398 499.7 15.8314 492.5 8.99514C485.3 2.15885 475.833 5.84685 472 8.54538C470.833 9.29498 467 12.1434 461 17.5405C455 22.9376 444.167 22.4878 439.5 21.5883C437.667 21.2885 431.3 18.6199 420.5 10.3444C409.7 2.0689 398 8.09563 393.5 12.1434C390.5 14.9919 381.7 20.8687 370.5 21.5883C356.5 22.4878 352.5 14.842 345 8.99514C339 4.31768 330.833 5.84685 327.5 7.19611C325.333 8.24554 319.7 11.5138 314.5 16.1912C309.3 20.8687 299.667 21.7383 295.5 21.5884C291.667 21.1386 282.6 18.8898 277 13.4927C271.4 8.09563 263.667 6.74636 260.5 6.74636C257 6.44652 248.8 7.37602 244 13.4927C239.2 19.6094 230.333 21.4384 226.5 21.5884C222.833 22.6378 213.3 22.7577 204.5 14.842C195.7 6.92626 189.5 6.14668 187.5 6.74636C183.667 6.59644 174.7 7.73582 169.5 13.4927C164.3 19.2496 157.333 21.2885 154.5 21.5884C150 23.0875 138 23.2074 126 11.6938C114 0.180072 100.333 8.09568 95 13.4927C93 16.1913 86.4 21.5884 76 21.5884C65.6 21.5884 56 14.992 52.5 11.6938C47.3333 7.1962 34.3 0.899618 23.5 11.6938Z" fill="#FAF8F6"/>
</svg>
