<svg width="375" height="1563" viewBox="0 0 375 1563" fill="none" xmlns="http://www.w3.org/2000/svg">
<path d="M-201.856 6.40987C-207.896 12.3266 -213.136 12.491 -215 11.8336V1563H591V0C590.907 0.0821771 589.602 1.47919 585.127 6.40981C580.652 11.3404 575.059 12.08 572.822 11.8335C566.11 11.8335 561.635 8.54642 560.237 6.90287C552.63 0.591675 545.508 4.27321 542.897 6.90287C541.499 8.62859 537.08 12.0307 530.592 11.8335C524.104 11.6363 520.804 9.12166 519.965 7.889C511.686 -0.39445 503.837 4.10885 500.947 7.39594C500.108 8.71077 496.808 11.439 490.32 11.8335C483.832 12.2279 479.413 9.20383 478.015 7.64247C470.184 0.147917 462.26 4.51974 459.277 7.64247C457.972 8.9573 453.907 11.6363 448.09 11.8335C442.273 12.0307 437.836 8.79295 436.344 7.14941C428.514 0.246531 421.335 4.27321 418.725 7.14941C417.607 8.62859 413.747 11.6363 407.259 11.8335C400.771 12.0307 395.979 8.62859 394.394 6.90287C387.011 0.986125 379.758 4.43756 377.055 6.90287C375.563 8.38206 371.182 11.439 365.589 11.8335C359.995 12.2279 355.427 9.20383 353.843 7.64247C346.012 0.345143 338.088 4.60192 335.105 7.64247C333.986 8.71077 330.295 11.0446 324.478 11.8335C318.66 12.6224 314.596 9.6969 313.291 8.13553C302.663 -1.47919 294.833 6.90287 292.036 8.87512C289.239 10.8474 286.443 11.8335 281.409 11.8335C277.382 11.8335 274.137 9.86125 273.019 8.87512C263.174 -0.591676 254.561 4.76627 251.484 8.62859C250.366 9.61472 246.674 11.6363 240.857 11.8335C233.586 12.08 229.67 8.87512 226.874 5.42369C224.077 1.97225 215.687 2.21878 212.611 5.91675C209.534 9.61472 203.941 11.8335 199.187 11.8335C194.432 11.8335 192.475 10.8474 188 7.39594C183.525 3.9445 181.568 3.45144 178.491 3.45144C175.415 3.45144 172.618 4.43756 169.262 7.889C165.906 11.3404 162.83 11.587 156.677 11.8335C150.525 12.08 148.847 8.87512 144.092 5.42369C139.338 1.97225 134.584 2.71184 129.27 6.90287C125.019 10.2557 120.414 11.587 118.643 11.8335C110.532 12.8196 107.456 8.38206 101.583 4.68409C95.7099 0.986126 90.1166 4.68411 84.5233 9.36819C80.0486 13.1155 72.2179 11.7513 68.8619 10.6008C67.7432 10.2721 64.4991 8.67791 60.4719 4.93064C56.4447 1.18336 51.1497 3.20492 49.0056 4.68411C48.353 5.09499 46.2089 6.65636 42.8529 9.61473C39.4969 12.5731 33.4374 12.3266 30.8272 11.8335C29.8018 11.6692 26.2407 10.2064 20.1999 5.67023C14.1591 1.13406 7.61485 4.43758 5.09785 6.65636C3.41986 8.21772 -1.50229 11.4391 -7.76683 11.8335C-15.5975 12.3266 -17.8348 8.13554 -22.0298 4.93064C-25.3858 2.36671 -29.9537 3.20492 -31.8182 3.94451C-33.0301 4.51975 -36.181 6.31121 -39.0895 8.87514C-41.9981 11.4391 -47.3863 11.9157 -49.7169 11.8336C-51.861 11.587 -56.9323 10.3543 -60.0645 7.39595C-63.1968 4.43758 -67.5223 3.69798 -69.2935 3.69798C-71.2512 3.53363 -75.8378 4.04313 -78.5226 7.39595C-81.2074 10.7488 -86.1668 11.7514 -88.3109 11.8336C-90.3618 12.4088 -95.6941 12.4745 -100.616 8.13554C-105.538 3.7966 -109.006 3.36927 -110.125 3.69798C-112.269 3.6158 -117.284 4.24035 -120.193 7.39595C-123.101 10.5516 -126.998 11.6692 -128.583 11.8336C-131.1 12.6553 -137.812 12.721 -144.524 6.40987C-151.236 0.0987071 -158.88 4.43761 -161.863 7.39595C-162.982 8.87515 -166.674 11.8336 -172.491 11.8336C-178.308 11.8336 -183.677 8.21777 -185.635 6.40987C-188.525 3.94456 -195.815 0.493122 -201.856 6.40987Z" fill="#FAF8F6"/>
</svg>
